<svg width="100" height="100" viewBox="0 0 100 100" fill="none" xmlns="http://www.w3.org/2000/svg">
<path d="M12.6639 26.0533C12.6447 26.1004 12.636 26.1483 12.6195 26.1963C12.5637 26.3541 12.5296 26.5189 12.5201 26.6854C12.5201 26.7194 12.5 26.75 12.5 26.7857V98.2143C12.5 99.2004 13.2996 100 14.2857 100H85.7143C86.7004 100 87.5 99.2004 87.5 98.2143V1.78571C87.5 0.79956 86.7004 0 85.7143 0H37.5C37.4625 0 37.432 0.0200544 37.3962 0.0217983C37.2297 0.0296455 37.0658 0.062779 36.9088 0.119454C36.8478 0.138637 36.7885 0.161307 36.7301 0.187465C36.5836 0.258092 36.4476 0.349644 36.3264 0.458636C36.288 0.486537 36.2505 0.516183 36.2139 0.548444C36.2139 0.548444 36.1947 0.560652 36.1877 0.569371L12.9735 25.5694C12.8444 25.7132 12.7398 25.8763 12.6639 26.0533ZM35.7143 6.33371V25H18.3803L35.7143 6.33371ZM16.0714 28.5714H37.5C38.4862 28.5714 39.2857 27.7719 39.2857 26.7857V3.57143H83.9286V96.4286H16.0714V28.5714Z" fill="#DEDEDE"/>
<path d="M42.2449 45.9665C42.3731 45.847 42.483 45.7092 42.5693 45.5575C42.6129 45.5 42.653 45.4407 42.6887 45.3788C42.9128 44.914 42.9128 44.3717 42.6887 43.907C42.6538 43.845 42.6137 43.7849 42.5693 43.7282C42.483 43.5756 42.3731 43.4379 42.2449 43.3175C42.2214 43.2966 42.2127 43.2661 42.1874 43.246L33.2588 36.1032C32.4889 35.4876 31.3641 35.6123 30.7485 36.3822C30.132 37.1521 30.2567 38.2769 31.0266 38.8925L35.9801 42.8571H30.357C29.3708 42.8571 28.5713 43.6567 28.5713 44.6429C28.5713 45.629 29.3708 46.4286 30.357 46.4286H35.9801L31.0266 50.3915C30.2567 51.0071 30.132 52.1319 30.7485 52.9018C31.3641 53.6717 32.4889 53.7964 33.2588 53.1799L42.1874 46.0371C42.2127 46.0179 42.2214 45.9874 42.2449 45.9665Z" fill="#DEDEDE"/>
<path d="M69.6433 42.8571H64.0203L68.9737 38.8942C69.7436 38.2786 69.8683 37.1538 69.2518 36.3839C68.6363 35.614 67.5115 35.4893 66.7416 36.1058L57.813 43.2486C57.7877 43.2678 57.779 43.2983 57.7554 43.3193C57.6273 43.4387 57.5174 43.5765 57.4311 43.7282C57.3875 43.7857 57.3474 43.845 57.3116 43.9069C57.0875 44.3717 57.0875 44.914 57.3116 45.3788C57.3474 45.4407 57.3875 45.5 57.4311 45.5575C57.5174 45.7092 57.6273 45.847 57.7554 45.9664C57.779 45.9874 57.7877 46.0179 57.813 46.0371L66.7416 53.1799C67.5115 53.7964 68.6363 53.6717 69.2518 52.9018C69.8683 52.1319 69.7436 51.0071 68.9737 50.3915L64.0203 46.4286H69.6433C70.6295 46.4286 71.4291 45.629 71.4291 44.6428C71.4291 43.6567 70.6295 42.8571 69.6433 42.8571Z" fill="#DEDEDE"/>
<path d="M50 58.9286C43.4448 58.9094 37.5401 62.8898 35.0978 68.9732C34.736 69.8853 35.1789 70.9194 36.0884 71.2873C36.9987 71.6553 38.0345 71.2202 38.4086 70.3125C40.3172 65.5866 44.9036 62.4922 50 62.4922C55.0965 62.4922 59.6828 65.5866 61.5915 70.3125C61.8278 70.908 62.3649 71.3318 62.9996 71.4216C63.6335 71.5123 64.2683 71.2559 64.6615 70.7493C65.0539 70.2436 65.1463 69.5653 64.9022 68.9732C62.4599 62.8898 56.5552 58.9094 50 58.9286Z" fill="#DEDEDE"/>
</svg>
