<svg width="17" height="17" viewBox="0 0 17 17" fill="none" xmlns="http://www.w3.org/2000/svg">
<path d="M8.5 1.5L8.98809 0.930558C8.70723 0.689814 8.29277 0.689814 8.01191 0.930558L8.5 1.5ZM1.5 7.5L1.01191 6.93056L0.75 7.15505V7.5H1.5ZM6.5 15.5V16.25C6.91421 16.25 7.25 15.9142 7.25 15.5H6.5ZM10.5 15.5H9.75C9.75 15.9142 10.0858 16.25 10.5 16.25V15.5ZM15.5 7.5H16.25V7.15505L15.9881 6.93056L15.5 7.5ZM2.5 16.25H6.5V14.75H2.5V16.25ZM15.9881 6.93056L8.98809 0.930558L8.01191 2.06944L15.0119 8.06944L15.9881 6.93056ZM8.01191 0.930558L1.01191 6.93056L1.98809 8.06944L8.98809 2.06944L8.01191 0.930558ZM7.25 15.5V12.5H5.75V15.5H7.25ZM9.75 12.5V15.5H11.25V12.5H9.75ZM10.5 16.25H14.5V14.75H10.5V16.25ZM16.25 14.5V7.5H14.75V14.5H16.25ZM0.75 7.5V14.5H2.25V7.5H0.75ZM8.5 11.25C9.19036 11.25 9.75 11.8096 9.75 12.5H11.25C11.25 10.9812 10.0188 9.75 8.5 9.75V11.25ZM8.5 9.75C6.98122 9.75 5.75 10.9812 5.75 12.5H7.25C7.25 11.8096 7.80964 11.25 8.5 11.25V9.75ZM14.5 16.25C15.4665 16.25 16.25 15.4665 16.25 14.5H14.75C14.75 14.6381 14.6381 14.75 14.5 14.75V16.25ZM2.5 14.75C2.36193 14.75 2.25 14.6381 2.25 14.5H0.75C0.75 15.4665 1.5335 16.25 2.5 16.25V14.75Z" fill="#767676"/>
</svg>
